<mxfile host="app.diagrams.net" modified="2023-05-11T10:25:47.688Z" agent="Mozilla/5.0 (Windows NT 10.0; Win64; x64) AppleWebKit/537.36 (KHTML, like Gecko) Chrome/110.0.0.0 YaBrowser/23.3.3.719 Yowser/2.5 Safari/537.36" etag="aEBb19Sg06yUCkqeNaWN" version="21.2.9" type="github">
  <diagram name="Страница 1" id="AmrDvZ3-bzrGmH_b5csG">
    <mxGraphModel dx="1829" dy="553" grid="1" gridSize="10" guides="1" tooltips="1" connect="1" arrows="1" fold="1" page="1" pageScale="1" pageWidth="827" pageHeight="1169" math="0" shadow="0">
      <root>
        <mxCell id="0" />
        <mxCell id="1" parent="0" />
        <mxCell id="q3l-zDVwC6IutHnMfONi-27" value="" style="rounded=0;whiteSpace=wrap;html=1;fillColor=#dae8fc;strokeColor=#6c8ebf;strokeWidth=0;" vertex="1" parent="1">
          <mxGeometry x="20" y="320" width="500" height="280" as="geometry" />
        </mxCell>
        <mxCell id="q3l-zDVwC6IutHnMfONi-1" value="Список" style="rounded=0;whiteSpace=wrap;html=1;" vertex="1" parent="1">
          <mxGeometry x="160" y="120" width="230" height="60" as="geometry" />
        </mxCell>
        <mxCell id="q3l-zDVwC6IutHnMfONi-2" value="Ссылка на объект 1(список, словарь, сет)" style="rounded=0;whiteSpace=wrap;html=1;" vertex="1" parent="1">
          <mxGeometry x="160" y="190" width="50" height="90" as="geometry" />
        </mxCell>
        <mxCell id="q3l-zDVwC6IutHnMfONi-3" value="Ссылка на объект 2" style="rounded=0;whiteSpace=wrap;html=1;" vertex="1" parent="1">
          <mxGeometry x="220" y="190" width="50" height="90" as="geometry" />
        </mxCell>
        <mxCell id="q3l-zDVwC6IutHnMfONi-4" value="Ссылка на объект 3" style="rounded=0;whiteSpace=wrap;html=1;" vertex="1" parent="1">
          <mxGeometry x="280" y="190" width="50" height="90" as="geometry" />
        </mxCell>
        <mxCell id="q3l-zDVwC6IutHnMfONi-5" value="Ссылка на объект 4" style="rounded=0;whiteSpace=wrap;html=1;" vertex="1" parent="1">
          <mxGeometry x="340" y="190" width="50" height="90" as="geometry" />
        </mxCell>
        <mxCell id="q3l-zDVwC6IutHnMfONi-6" value="Список 2" style="rounded=0;whiteSpace=wrap;html=1;" vertex="1" parent="1">
          <mxGeometry x="510" y="120" width="230" height="60" as="geometry" />
        </mxCell>
        <mxCell id="q3l-zDVwC6IutHnMfONi-12" value="" style="curved=1;endArrow=classic;html=1;rounded=0;exitX=0.5;exitY=0;exitDx=0;exitDy=0;entryX=0.5;entryY=0;entryDx=0;entryDy=0;" edge="1" parent="1" source="q3l-zDVwC6IutHnMfONi-6" target="q3l-zDVwC6IutHnMfONi-1">
          <mxGeometry width="50" height="50" relative="1" as="geometry">
            <mxPoint x="390" y="290" as="sourcePoint" />
            <mxPoint x="440" y="240" as="targetPoint" />
            <Array as="points">
              <mxPoint x="580" y="30" />
              <mxPoint x="360" y="40" />
            </Array>
          </mxGeometry>
        </mxCell>
        <mxCell id="q3l-zDVwC6IutHnMfONi-14" value="a = b" style="text;html=1;strokeColor=none;fillColor=none;align=center;verticalAlign=middle;whiteSpace=wrap;rounded=0;" vertex="1" parent="1">
          <mxGeometry x="470" width="60" height="30" as="geometry" />
        </mxCell>
        <mxCell id="q3l-zDVwC6IutHnMfONi-20" style="edgeStyle=orthogonalEdgeStyle;rounded=0;orthogonalLoop=1;jettySize=auto;html=1;entryX=0;entryY=0.25;entryDx=0;entryDy=0;" edge="1" parent="1">
          <mxGeometry relative="1" as="geometry">
            <mxPoint x="185" y="381" as="sourcePoint" />
            <mxPoint x="160" y="136" as="targetPoint" />
            <Array as="points">
              <mxPoint x="185" y="341" />
              <mxPoint x="30" y="341" />
              <mxPoint x="30" y="136" />
            </Array>
          </mxGeometry>
        </mxCell>
        <mxCell id="q3l-zDVwC6IutHnMfONi-15" value="Список 3" style="rounded=0;whiteSpace=wrap;html=1;" vertex="1" parent="1">
          <mxGeometry x="70" y="380" width="230" height="60" as="geometry" />
        </mxCell>
        <mxCell id="q3l-zDVwC6IutHnMfONi-19" value="Новая ссылка на объект&lt;br&gt;1" style="rounded=0;whiteSpace=wrap;html=1;" vertex="1" parent="1">
          <mxGeometry x="70" y="450" width="50" height="90" as="geometry" />
        </mxCell>
        <mxCell id="q3l-zDVwC6IutHnMfONi-21" value="Новая ссылка на объект&lt;br&gt;1" style="rounded=0;whiteSpace=wrap;html=1;" vertex="1" parent="1">
          <mxGeometry x="130" y="450" width="50" height="90" as="geometry" />
        </mxCell>
        <mxCell id="q3l-zDVwC6IutHnMfONi-22" value="Новая ссылка на объект&lt;br&gt;1" style="rounded=0;whiteSpace=wrap;html=1;" vertex="1" parent="1">
          <mxGeometry x="190" y="450" width="50" height="90" as="geometry" />
        </mxCell>
        <mxCell id="q3l-zDVwC6IutHnMfONi-23" value="Новая ссылка на объект&lt;br&gt;1" style="rounded=0;whiteSpace=wrap;html=1;" vertex="1" parent="1">
          <mxGeometry x="250" y="450" width="50" height="90" as="geometry" />
        </mxCell>
        <mxCell id="q3l-zDVwC6IutHnMfONi-24" value="ссылки равны, пока значения объектов равны" style="endArrow=none;dashed=1;html=1;dashPattern=1 3;strokeWidth=2;rounded=0;exitX=1;exitY=0.5;exitDx=0;exitDy=0;entryX=0.5;entryY=1;entryDx=0;entryDy=0;" edge="1" parent="1" source="q3l-zDVwC6IutHnMfONi-23" target="q3l-zDVwC6IutHnMfONi-5">
          <mxGeometry x="0.2716" y="-40" width="50" height="50" relative="1" as="geometry">
            <mxPoint x="390" y="420" as="sourcePoint" />
            <mxPoint x="440" y="370" as="targetPoint" />
            <mxPoint as="offset" />
          </mxGeometry>
        </mxCell>
        <mxCell id="q3l-zDVwC6IutHnMfONi-25" value="при изменении объекта 4, меняется он же в списке 2" style="endArrow=none;dashed=1;html=1;dashPattern=1 3;strokeWidth=2;rounded=0;exitX=1;exitY=0.5;exitDx=0;exitDy=0;" edge="1" parent="1" source="q3l-zDVwC6IutHnMfONi-5" target="q3l-zDVwC6IutHnMfONi-6">
          <mxGeometry x="1" y="-41" width="50" height="50" relative="1" as="geometry">
            <mxPoint x="390" y="190" as="sourcePoint" />
            <mxPoint x="440" y="140" as="targetPoint" />
            <mxPoint x="14" y="-8" as="offset" />
          </mxGeometry>
        </mxCell>
        <mxCell id="q3l-zDVwC6IutHnMfONi-29" value="Мелкая копия" style="text;html=1;strokeColor=none;fillColor=none;align=center;verticalAlign=middle;whiteSpace=wrap;rounded=0;" vertex="1" parent="1">
          <mxGeometry x="440" y="330" width="60" height="30" as="geometry" />
        </mxCell>
        <mxCell id="q3l-zDVwC6IutHnMfONi-32" value="Об. 5" style="rounded=0;whiteSpace=wrap;html=1;" vertex="1" parent="1">
          <mxGeometry x="100" y="200" width="50" height="20" as="geometry" />
        </mxCell>
        <mxCell id="q3l-zDVwC6IutHnMfONi-33" value="Об. 6" style="rounded=0;whiteSpace=wrap;html=1;" vertex="1" parent="1">
          <mxGeometry x="100" y="228" width="50" height="20" as="geometry" />
        </mxCell>
        <mxCell id="q3l-zDVwC6IutHnMfONi-34" value="Об. 7" style="rounded=0;whiteSpace=wrap;html=1;" vertex="1" parent="1">
          <mxGeometry x="100" y="260" width="50" height="20" as="geometry" />
        </mxCell>
        <mxCell id="q3l-zDVwC6IutHnMfONi-35" value="при изменении Об.7 он же меняется в списке 3" style="endArrow=none;dashed=1;html=1;dashPattern=1 3;strokeWidth=2;rounded=0;entryX=0.25;entryY=1;entryDx=0;entryDy=0;" edge="1" parent="1" source="q3l-zDVwC6IutHnMfONi-19" target="q3l-zDVwC6IutHnMfONi-34">
          <mxGeometry width="50" height="50" relative="1" as="geometry">
            <mxPoint x="390" y="400" as="sourcePoint" />
            <mxPoint x="440" y="350" as="targetPoint" />
            <Array as="points">
              <mxPoint y="380" />
            </Array>
          </mxGeometry>
        </mxCell>
      </root>
    </mxGraphModel>
  </diagram>
</mxfile>
